<!DOCTYPE svg PUBLIC "-//W3C//DTD SVG 20010904//EN" "http://www.w3.org/TR/2001/REC-SVG-20010904/DTD/svg10.dtd">
<svg version="1.0" xmlns="http://www.w3.org/2000/svg" width="500px" height="500px" viewBox="0 0 5000 5000" preserveAspectRatio="xMidYMid meet">
<g id="layer101" fill="#f5f5f5" stroke="none">
 <path d="M2660 4591 c0 -10 49 -21 99 -21 20 0 74 -9 121 -20 103 -24 100 -23 100 -6 0 10 -20 16 -72 21 -40 4 -109 13 -153 21 -94 16 -95 17 -95 5z"/>
 <path d="M2340 4534 c-308 -22 -639 -121 -891 -265 -294 -168 -571 -437 -743 -720 -308 -508 -379 -1155 -190 -1729 151 -457 440 -833 849 -1103 221 -145 524 -259 820 -307 208 -34 555 -20 794 31 176 38 451 147 506 199 17 16 65 45 108 65 73 34 199 127 326 241 61 55 195 204 188 210 -2 2 -57 -49 -123 -114 -128 -126 -369 -322 -301 -245 9 11 17 22 17 26 0 3 -8 4 -17 1 -12 -4 -9 1 7 14 14 12 26 19 29 17 14 -14 101 56 231 185 82 83 150 146 150 141 0 -5 9 -7 20 -4 17 5 140 152 140 168 0 4 -13 5 -29 3 l-29 -4 27 40 c16 23 34 52 41 65 12 22 11 23 -13 17 -25 -6 -25 -4 20 76 25 46 51 90 59 98 21 25 107 211 99 218 -16 16 -60 -26 -81 -78 -13 -30 -23 -49 -24 -42 -1 26 -21 10 -44 -37 -14 -27 -31 -55 -38 -62 -8 -8 -26 -43 -42 -79 -15 -36 -36 -74 -46 -85 -27 -29 -140 -197 -140 -208 0 -5 8 -6 17 -3 19 8 13 0 -67 -89 -25 -27 -59 -66 -75 -85 -17 -20 -27 -31 -22 -26 27 36 -9 15 -119 -68 -69 -53 -122 -91 -119 -86 9 15 0 12 -40 -11 -70 -42 -43 -11 42 47 48 32 89 65 91 73 3 9 0 12 -10 9 -10 -4 -14 0 -13 13 1 10 47 59 102 109 56 49 104 94 108 100 11 18 -3 24 -21 9 -10 -8 18 33 62 91 44 58 88 119 98 136 12 20 25 30 36 27 17 -4 60 57 110 156 28 57 53 173 38 182 -7 5 -2 32 15 85 30 94 42 171 29 187 -6 7 -12 23 -14 37 -2 19 -10 6 -32 -53 -15 -43 -30 -76 -32 -74 -3 2 3 37 12 78 13 57 17 127 17 299 1 124 2 177 4 118 2 -69 8 -108 14 -108 15 0 7 268 -9 295 -10 18 -12 15 -13 -25 l-1 -45 -19 40 c-10 22 -19 59 -19 82 0 78 -64 320 -91 348 -14 14 -11 -3 21 -137 45 -183 43 -170 23 -166 -12 2 -19 14 -21 36 -2 17 -8 32 -14 32 -7 0 -9 -21 -5 -62 5 -53 -1 -39 -33 83 -21 81 -52 175 -70 210 -60 122 -74 118 -24 -7 146 -369 161 -764 44 -1126 -107 -325 -320 -610 -607 -811 -40 -28 -73 -57 -73 -63 0 -18 -68 -57 -114 -65 -23 -4 -84 -25 -137 -47 -53 -22 -146 -53 -205 -69 -105 -27 -118 -28 -344 -28 -205 0 -249 3 -348 23 -244 49 -456 138 -617 259 -130 97 -340 310 -408 413 -138 211 -234 471 -262 713 -11 100 -6 109 93 155 93 43 226 92 245 91 7 0 -33 -18 -88 -40 -55 -23 -102 -43 -105 -46 -20 -22 214 49 300 91 30 14 56 22 59 17 3 -5 40 -12 81 -15 41 -4 87 -9 103 -12 20 -4 27 -2 27 10 0 9 5 16 11 16 5 0 7 5 4 10 -8 12 -7 12 151 0 192 -15 179 -9 193 -89 10 -55 10 -73 0 -89 -18 -29 4 -52 47 -52 l34 0 0 60 c0 38 4 60 11 60 12 0 7 -165 -6 -207 -6 -18 -3 -22 22 -25 27 -3 28 -5 31 -68 3 -59 0 -68 -23 -90 l-25 -23 0 51 c0 45 -3 52 -20 52 -15 0 -20 -7 -20 -28 0 -16 -7 -53 -16 -82 -13 -43 -29 -67 -79 -116 -63 -62 -64 -63 -75 -141 -6 -43 -10 -106 -8 -141 l3 -63 123 -53 c136 -60 229 -112 246 -138 8 -14 5 -23 -19 -48 -19 -20 -32 -27 -39 -20 -18 18 -23 11 -36 -51 -12 -58 -12 -63 6 -76 26 -19 56 -13 70 15 7 15 14 20 18 13 4 -7 41 -11 91 -11 97 0 108 8 120 92 7 45 25 58 25 18 0 -48 76 -69 104 -28 9 12 16 30 16 40 0 21 -7 21 104 4 85 -13 95 -12 239 15 146 28 153 28 211 13 75 -20 131 -13 213 27 65 31 130 95 163 159 17 33 17 41 3 130 -11 70 -12 99 -4 112 17 27 13 56 -17 138 -22 59 -32 76 -50 78 -18 3 -22 -1 -22 -22 0 -14 -3 -26 -7 -26 -5 0 -30 49 -58 107 -126 270 -321 491 -535 606 -36 19 -157 74 -270 122 -113 48 -209 91 -213 95 -16 14 -26 469 -12 548 12 69 11 72 -10 86 -24 16 -83 131 -110 216 -10 30 -22 61 -28 68 -18 23 -67 12 -172 -40 -120 -60 -115 -48 -89 -192 l15 -90 -41 -58 -41 -59 34 -197 c20 -108 34 -198 33 -200 -2 -1 -45 2 -97 8 -214 22 -439 8 -697 -45 -67 -14 -127 -23 -132 -20 -42 26 44 246 169 431 71 105 282 324 392 407 185 139 302 193 579 266 l175 46 190 -1 c288 0 496 -49 694 -160 53 -30 125 -64 160 -75 38 -13 80 -36 104 -58 25 -23 42 -31 44 -24 3 9 14 8 41 -6 21 -11 54 -19 73 -19 20 0 46 -5 57 -11 11 -6 29 -11 39 -11 12 0 2 16 -37 56 -46 46 -50 53 -27 45 48 -18 82 -39 134 -80 40 -31 54 -37 62 -27 8 9 -2 25 -39 61 -43 42 -50 55 -50 87 0 31 -8 47 -40 82 -22 24 -40 50 -40 58 0 28 -61 106 -115 148 -29 23 -60 52 -69 65 -14 21 -14 23 4 18 35 -9 22 15 -25 47 -137 94 -467 210 -698 244 -103 16 -334 26 -427 20z m1837 -1876 c-2 -13 -4 -5 -4 17 -1 22 1 32 4 23 2 -10 2 -28 0 -40z m10 -115 c-2 -16 -4 -5 -4 22 0 28 2 40 4 28 2 -13 2 -35 0 -50z m-2137 -13 c0 -25 -4 -30 -25 -30 -29 0 -32 16 -8 42 23 26 33 22 33 -12z m464 -115 c214 -80 434 -241 589 -429 l41 -51 -49 45 c-103 94 -289 213 -530 340 -115 61 -165 94 -165 112 0 15 47 8 114 -17z m62 -166 c137 -68 288 -184 417 -319 59 -61 107 -116 107 -121 0 -13 -110 -11 -246 6 -203 25 -337 68 -368 118 -7 12 -22 98 -33 195 l-19 172 20 0 c12 0 67 -23 122 -51z m1570 -91 c-4 -24 -11 -77 -16 -119 -5 -42 -16 -91 -24 -110 l-16 -34 5 35 c2 19 9 73 14 120 5 47 12 93 15 103 3 9 8 24 11 32 10 32 17 13 11 -27z m-96 -517 c-27 -59 -48 -117 -47 -128 2 -28 -151 -223 -175 -223 -18 0 -17 3 7 33 98 120 136 177 133 199 -3 22 108 227 124 228 3 0 -16 -49 -42 -109z m229 -32 c-38 -77 -109 -199 -116 -199 -2 0 14 33 37 73 22 39 55 100 72 134 18 34 34 61 36 59 2 -2 -11 -33 -29 -67z m-179 -362 c0 -2 -15 -16 -32 -33 l-33 -29 29 33 c28 30 36 37 36 29z m-599 -216 c-31 -23 -90 -57 -76 -44 13 14 88 63 95 63 3 0 -6 -9 -19 -19z m38 -88 c-11 -18 -78 -57 -85 -50 -5 4 78 66 89 67 4 0 2 -8 -4 -17z m-76 -147 c-4 -18 -28 -38 -87 -74 -122 -75 -146 -86 -146 -68 0 9 -13 18 -33 21 -27 5 -47 -1 -100 -30 -37 -20 -67 -32 -67 -25 0 7 -16 11 -42 9 -24 -1 -51 2 -62 6 -26 11 200 75 279 79 49 2 79 12 160 52 55 28 101 51 101 52 1 1 -1 -9 -3 -22z m-383 5 c-8 -5 -31 -11 -50 -14 -35 -6 -35 -6 5 8 46 15 67 18 45 6z m230 -16 c-14 -7 -27 -11 -30 -9 -6 7 22 24 40 23 9 0 5 -6 -10 -14z m-1219 -154 c-8 -5 -11 -16 -7 -26 6 -15 2 -17 -31 -11 -21 3 -58 12 -83 20 l-45 15 68 -6 c46 -4 67 -2 67 6 0 6 10 11 23 11 16 0 19 -3 8 -9z m489 -47 c0 -15 16 -16 148 -12 l147 5 -85 -18 c-107 -23 -247 -25 -286 -4 -16 8 -23 15 -16 15 6 0 12 7 12 15 0 11 11 15 40 15 30 0 40 -4 40 -16z m560 -63 c0 -5 -29 -16 -63 -25 -35 -8 -70 -18 -78 -21 -8 -3 -20 4 -27 15 -12 19 -10 20 25 15 30 -4 91 6 141 24 1 1 2 -3 2 -8z m-655 -81 c113 -2 117 -3 70 -13 -55 -13 -263 -12 -309 1 -60 16 -37 28 41 20 43 -3 132 -7 198 -8z"/>
 <path d="M4543 2811 c3 -15 9 -51 13 -80 10 -78 28 -64 19 16 -8 76 -13 93 -27 93 -6 0 -8 -12 -5 -29z"/>
 <path d="M4269 2710 c11 -85 18 -115 24 -104 11 19 3 110 -14 179 -21 82 -25 47 -10 -75z"/>
 <path d="M4370 2750 c0 -22 -4 -40 -10 -40 -6 0 -10 -27 -10 -60 0 -47 3 -60 15 -60 12 0 14 10 9 55 -6 49 -5 55 10 49 13 -5 16 2 16 45 0 39 -4 51 -15 51 -11 0 -15 -11 -15 -40z"/>
 <path d="M4490 2695 c0 -17 -3 -66 -6 -110 -6 -75 -5 -81 16 -93 l23 -14 -5 111 c-3 66 -9 116 -16 123 -9 9 -12 5 -12 -17z"/>
 <path d="M4331 2348 c0 -29 4 -62 8 -73 4 -11 2 -51 -6 -90 -16 -84 -16 -78 -1 -73 6 2 19 43 28 91 14 71 14 87 3 87 -9 0 -13 16 -13 55 0 30 -4 55 -10 55 -5 0 -10 -24 -9 -52z"/>
 <path d="M4470 2235 c0 -13 -6 -28 -14 -32 -24 -14 -46 -70 -62 -163 -16 -98 -14 -131 6 -88 7 14 18 24 25 22 8 -4 22 33 44 114 35 133 39 172 16 172 -9 0 -15 -9 -15 -25z"/>
 <path d="M4516 2119 c-2 -8 -14 -59 -26 -114 -13 -55 -44 -164 -71 -243 -47 -138 -60 -188 -37 -147 6 11 16 25 23 30 17 15 90 199 109 278 10 38 17 98 17 134 0 64 -6 90 -15 62z"/>
 <path d="M4336 2029 c-25 -67 -27 -95 -7 -73 10 10 51 119 51 134 0 6 -4 10 -9 10 -5 0 -21 -32 -35 -71z"/>
 </g>

</svg>