<!DOCTYPE svg PUBLIC "-//W3C//DTD SVG 20010904//EN" "http://www.w3.org/TR/2001/REC-SVG-20010904/DTD/svg10.dtd">
<svg version="1.0" xmlns="http://www.w3.org/2000/svg" width="500px" height="500px" viewBox="0 0 5000 5000" preserveAspectRatio="xMidYMid meet">
<g id="layer101" fill="#1d1d1b" stroke="none">
 <path d="M2670 4601 c0 -5 26 -12 58 -16 57 -6 197 -30 240 -41 16 -5 22 -2 22 9 0 11 -18 16 -77 22 -43 4 -112 13 -153 21 -89 17 -90 17 -90 5z"/>
 <path d="M2302 4539 c-710 -59 -1359 -502 -1672 -1144 -214 -438 -266 -971 -140 -1442 56 -208 168 -462 277 -627 122 -182 307 -375 503 -523 221 -166 535 -304 845 -370 120 -25 147 -27 355 -27 229 0 341 10 509 44 178 37 452 145 514 202 15 14 69 46 120 71 138 68 387 283 487 422 8 11 -39 -32 -105 -96 -116 -111 -253 -227 -298 -250 -22 -12 -22 -12 -4 9 18 20 18 20 -4 24 -24 3 -28 1 84 54 18 8 100 82 182 164 82 82 151 147 154 145 2 -3 11 1 19 8 13 10 14 9 8 -2 -6 -8 -5 -12 2 -10 11 4 132 155 132 165 0 3 -13 4 -28 2 l-28 -4 37 61 c34 57 36 82 4 55 -8 -7 -15 -9 -15 -5 0 10 54 106 102 182 38 59 111 214 104 220 -2 2 -15 -1 -29 -8 -17 -7 -36 -34 -56 -78 -17 -36 -28 -55 -25 -42 11 41 -16 19 -51 -44 -19 -33 -49 -92 -68 -130 -19 -39 -48 -86 -64 -105 -31 -35 -123 -175 -123 -186 0 -3 7 -3 16 0 15 6 15 4 3 -11 -21 -26 -161 -187 -170 -195 -5 -5 -4 -3 1 4 31 37 -4 17 -114 -67 -68 -52 -126 -92 -129 -88 -4 3 -22 -4 -42 -15 -72 -43 -32 -1 55 58 50 33 90 65 90 70 0 5 -6 7 -13 4 -8 -3 -13 3 -13 16 0 14 36 53 108 116 98 86 122 114 100 114 -4 0 -14 -6 -22 -12 -7 -7 -4 1 9 17 156 214 177 240 191 237 19 -3 102 130 130 210 21 60 27 134 11 123 -6 -3 1 27 14 66 38 111 47 177 31 223 l-13 39 -33 -87 c-18 -47 -34 -85 -36 -84 -1 2 7 46 18 98 18 81 20 127 19 314 -2 188 -4 225 -20 260 -10 23 -21 75 -24 116 -4 41 -16 107 -27 146 -24 88 -60 187 -66 181 -2 -2 9 -60 25 -128 44 -184 45 -190 29 -187 -18 4 -28 19 -28 45 0 12 -5 25 -12 29 -8 5 -9 -9 -5 -54 4 -34 5 -62 3 -62 -3 0 -14 44 -26 97 -27 117 -58 210 -93 280 -26 50 -60 88 -42 47 116 -278 162 -512 152 -773 -20 -500 -268 -956 -674 -1239 -45 -31 -82 -62 -82 -69 -1 -19 -58 -54 -98 -60 -21 -3 -78 -23 -128 -44 -218 -92 -347 -113 -633 -106 -233 6 -327 21 -523 87 -209 69 -334 144 -532 317 -237 208 -396 466 -477 774 -33 128 -56 284 -46 322 7 30 89 73 240 126 118 42 135 34 20 -8 -92 -35 -133 -58 -79 -45 69 16 223 68 267 90 49 25 73 31 64 15 -3 -5 34 -12 82 -15 48 -4 95 -10 105 -12 11 -4 17 0 17 10 0 9 6 16 13 16 8 0 7 4 -3 10 -20 13 2 13 166 0 183 -14 170 -8 185 -90 10 -56 10 -72 -1 -85 -18 -22 13 -55 52 -55 28 0 28 1 28 60 0 37 4 60 11 60 12 0 7 -168 -6 -207 -6 -18 -3 -22 22 -25 27 -3 28 -5 31 -68 3 -59 0 -68 -23 -90 l-25 -23 0 51 c0 45 -3 52 -20 52 -16 0 -20 -7 -20 -33 0 -68 -30 -129 -96 -194 -60 -59 -63 -63 -73 -131 -6 -39 -11 -102 -11 -140 l0 -70 88 -37 c184 -79 292 -141 292 -169 0 -19 -57 -69 -64 -57 -14 22 -23 10 -35 -45 -12 -50 -11 -57 5 -75 23 -25 55 -21 70 9 7 15 14 20 18 13 4 -7 41 -11 91 -11 97 0 108 8 120 93 6 48 25 66 25 24 0 -30 29 -57 62 -57 29 0 44 14 53 53 4 15 10 27 14 27 3 0 45 -6 94 -14 84 -12 94 -12 240 16 148 28 154 28 217 13 134 -32 261 23 348 154 l39 59 -14 98 c-11 72 -12 103 -4 116 16 27 13 55 -18 138 -21 59 -32 76 -49 78 -18 3 -22 -2 -22 -22 0 -14 -3 -26 -7 -26 -5 0 -31 49 -59 108 -112 234 -281 440 -455 555 -56 37 -169 92 -320 158 -129 55 -238 104 -243 109 -15 15 -25 468 -12 548 7 39 9 72 5 72 -19 0 -70 86 -105 178 -43 111 -58 132 -90 132 -13 0 -71 -24 -129 -52 -120 -60 -114 -47 -89 -194 l16 -93 -42 -55 -41 -56 35 -197 c19 -109 34 -199 32 -201 -2 -1 -57 3 -122 9 -214 21 -509 -3 -731 -60 -79 -21 -83 -19 -83 40 0 61 86 249 175 384 68 102 323 361 431 438 178 125 321 184 611 252 157 37 159 37 328 32 182 -6 286 -21 430 -62 89 -26 130 -44 275 -121 41 -21 98 -47 127 -57 29 -10 73 -33 98 -52 25 -19 45 -30 45 -25 0 6 18 1 41 -10 22 -12 48 -18 59 -15 10 3 37 -2 59 -11 23 -9 45 -14 48 -10 4 4 -15 29 -42 56 -27 28 -46 50 -42 50 17 0 115 -55 154 -86 39 -32 63 -42 63 -27 0 4 -21 28 -46 54 -37 37 -46 54 -48 85 -3 46 -14 70 -50 103 -14 14 -26 32 -26 41 0 27 -67 110 -126 158 -62 49 -86 83 -54 75 30 -8 24 13 -10 37 -110 78 -439 202 -635 239 -199 38 -354 46 -553 30z m1885 -1871 c-2 -13 -4 -5 -4 17 -1 22 1 32 4 23 2 -10 2 -28 0 -40z m10 -115 c-2 -16 -4 -5 -4 22 0 28 2 40 4 28 2 -13 2 -35 0 -50z m-2137 -13 c0 -25 -4 -30 -25 -30 -29 0 -32 16 -8 42 23 26 33 22 33 -12z m464 -115 c214 -80 434 -241 589 -429 l41 -51 -49 45 c-103 94 -289 213 -530 340 -115 61 -165 94 -165 112 0 15 47 8 114 -17z m62 -166 c137 -68 288 -184 417 -319 59 -61 107 -116 107 -121 0 -13 -110 -11 -246 6 -203 25 -337 68 -368 118 -7 12 -22 98 -33 195 l-19 172 20 0 c12 0 67 -23 122 -51z m1570 -91 c-4 -24 -11 -77 -16 -119 -5 -42 -16 -91 -24 -110 l-16 -34 5 35 c2 19 9 73 14 120 5 47 12 93 15 103 3 9 8 24 11 32 10 32 17 13 11 -27z m-96 -517 c-27 -59 -48 -117 -47 -128 2 -28 -151 -223 -175 -223 -18 0 -17 3 7 33 98 120 136 177 133 199 -3 22 108 227 124 228 3 0 -16 -49 -42 -109z m229 -32 c-38 -77 -109 -199 -116 -199 -2 0 14 33 37 73 22 39 55 100 72 134 18 34 34 61 36 59 2 -2 -11 -33 -29 -67z m-179 -362 c0 -2 -15 -16 -32 -33 l-33 -29 29 33 c28 30 36 37 36 29z m-599 -216 c-31 -23 -90 -57 -76 -44 13 14 88 63 95 63 3 0 -6 -9 -19 -19z m38 -88 c-11 -18 -78 -57 -85 -50 -5 4 78 66 89 67 4 0 2 -8 -4 -17z m-76 -147 c-4 -18 -28 -38 -87 -74 -122 -75 -146 -86 -146 -68 0 9 -13 18 -33 21 -27 5 -47 -1 -100 -30 -37 -20 -67 -32 -67 -25 0 7 -16 11 -42 9 -24 -1 -51 2 -62 6 -26 11 200 75 279 79 49 2 79 12 160 52 55 28 101 51 101 52 1 1 -1 -9 -3 -22z m-383 5 c-8 -5 -31 -11 -50 -14 -35 -6 -35 -6 5 8 46 15 67 18 45 6z m230 -16 c-14 -7 -27 -11 -30 -9 -6 7 22 24 40 23 9 0 5 -6 -10 -14z m-1219 -154 c-8 -5 -11 -16 -7 -26 6 -15 2 -17 -31 -11 -21 3 -58 12 -83 20 l-45 15 68 -6 c46 -4 67 -2 67 6 0 6 10 11 23 11 16 0 19 -3 8 -9z m489 -47 c0 -15 16 -16 148 -12 l147 5 -85 -18 c-107 -23 -247 -25 -286 -4 -16 8 -23 15 -16 15 6 0 12 7 12 15 0 11 11 15 40 15 30 0 40 -4 40 -16z m560 -63 c0 -5 -29 -16 -63 -25 -35 -8 -70 -18 -78 -21 -8 -3 -20 4 -27 15 -12 19 -10 20 25 15 30 -4 91 6 141 24 1 1 2 -3 2 -8z m-655 -81 c113 -2 117 -3 70 -13 -55 -13 -263 -12 -309 1 -60 16 -37 28 41 20 43 -3 132 -7 198 -8z"/>
 <path d="M3880 4060 c30 -27 57 -46 60 -43 6 6 -91 93 -105 92 -5 0 15 -22 45 -49z"/>
 <path d="M4553 2828 c3 -13 9 -49 12 -80 4 -32 12 -58 17 -58 9 0 3 101 -8 143 -8 25 -27 21 -21 -5z"/>
 <path d="M4271 2822 c-2 -46 22 -211 31 -206 4 3 8 24 7 47 -1 47 -36 195 -38 159z"/>
 <path d="M4380 2760 c0 -22 -4 -40 -10 -40 -6 0 -10 -27 -10 -60 0 -47 3 -60 15 -60 8 0 15 8 15 18 0 14 -2 15 -10 2 -10 -15 -6 36 11 130 l8 45 -2 -47 c-1 -27 1 -48 5 -48 5 0 8 23 8 50 0 38 -4 50 -15 50 -11 0 -15 -11 -15 -40z"/>
 <path d="M4245 2675 c3 -38 5 -109 5 -157 0 -58 4 -88 11 -88 15 0 6 256 -10 290 -10 21 -11 14 -6 -45z"/>
 <path d="M4501 2668 c1 -45 2 -49 9 -23 6 22 8 9 9 -47 1 -85 -16 -108 -22 -30 l-3 47 -2 -52 c-1 -29 0 -53 2 -53 2 0 11 -3 20 -6 14 -5 16 4 16 67 0 87 -9 149 -21 149 -5 0 -8 -24 -8 -52z"/>
 <path d="M4340 2367 c0 -23 4 -56 9 -73 5 -19 4 -55 -4 -100 -8 -38 -11 -71 -9 -74 10 -9 22 24 35 98 9 58 10 77 1 80 -7 2 -12 25 -12 58 0 30 -4 54 -10 54 -5 0 -10 -19 -10 -43z"/>
 <path d="M4480 2245 c0 -14 -7 -28 -15 -31 -20 -8 -51 -94 -64 -181 -13 -87 -13 -83 -2 -83 5 0 12 9 16 19 3 11 12 18 18 15 8 -3 23 34 45 114 36 132 40 172 17 172 -9 0 -15 -9 -15 -25z"/>
 <path d="M4528 2130 c-3 -8 -14 -53 -23 -100 -9 -47 -41 -158 -71 -247 -30 -89 -54 -165 -54 -169 0 -20 62 91 90 160 48 120 71 224 68 303 -2 37 -6 61 -10 53z"/>
 <path d="M4352 2053 c-11 -32 -23 -66 -28 -77 -5 -13 -3 -17 6 -14 7 2 23 32 36 67 26 70 28 81 15 81 -5 0 -18 -26 -29 -57z"/>
 </g>

</svg>