<?xml version="1.0" standalone="no"?>
<!DOCTYPE svg PUBLIC "-//W3C//DTD SVG 20010904//EN"
 "http://www.w3.org/TR/2001/REC-SVG-20010904/DTD/svg10.dtd">
<svg version="1.0" xmlns="http://www.w3.org/2000/svg"
 width="435.000000pt" height="400.000000pt" viewBox="0 0 435.000000 400.000000"
 preserveAspectRatio="xMidYMid meet">

<g transform="translate(0.000000,400.000000) scale(0.100000,-0.100000)"
fill="#000000" stroke="none">
<path d="M0 2100 l0 -1900 140 0 140 0 0 -100 0 -100 1585 0 1585 0 0 100 c0
82 3 100 15 100 12 0 15 -18 15 -100 l0 -100 145 0 145 0 0 95 c0 144 -22 135
307 135 l273 0 0 1810 0 1810 -280 0 -280 0 0 75 0 75 -1895 0 -1895 0 0
-1900z m2275 1731 c54 -8 49 -9 -60 -9 -66 1 -142 -3 -169 -7 -36 -6 -50 -5
-57 6 -5 8 -3 17 4 22 14 9 193 2 282 -12z m-312 -5 c4 -10 -4 -15 -24 -18
-35 -5 -47 6 -22 21 25 14 40 13 46 -3z m628 -20 c24 -7 70 -21 103 -31 74
-21 62 -40 -14 -20 -30 8 -56 15 -57 15 -2 0 -3 -7 -3 -15 0 -12 -4 -13 -25
-3 -29 13 -33 28 -8 28 22 0 8 12 -30 27 -45 16 -20 16 34 -1z m-591 -46 c0
-5 -5 -10 -11 -10 -5 0 -7 5 -4 10 3 6 8 10 11 10 2 0 4 -4 4 -10z m68 3 c-10
-2 -26 -2 -35 0 -10 3 -2 5 17 5 19 0 27 -2 18 -5z m272 -32 c0 -5 9 -7 21 -4
23 6 157 -16 164 -28 3 -4 -10 -4 -28 0 -17 4 -113 6 -212 5 -133 -2 -171 0
-145 8 19 5 39 13 43 17 12 12 157 14 157 2z m-370 -26 c-30 -8 -62 -14 -70
-14 -24 1 72 27 100 27 14 0 0 -6 -30 -13z m-420 -5 c-8 -5 -22 -9 -30 -9 -10
0 -8 3 5 9 27 12 43 12 25 0z m268 -18 c3 -9 -3 -13 -19 -11 -13 2 -29 0 -35
-4 -6 -3 -38 -9 -70 -12 -67 -6 -62 -2 28 25 70 21 89 21 96 2z m1077 -22 c33
-16 56 -29 50 -29 -5 0 -37 13 -70 29 -33 15 -55 28 -50 28 6 0 37 -12 70 -28z
m-552 13 c-7 -2 -19 -2 -25 0 -7 3 -2 5 12 5 14 0 19 -2 13 -5z m377 -33 c31
-19 58 -28 88 -28 23 1 42 3 42 5 0 2 -25 15 -55 28 -59 27 -72 39 -27 26 53
-16 106 -42 188 -92 81 -50 101 -65 69 -53 -28 11 -15 -11 20 -34 63 -40 37
-42 -33 -2 -68 39 -261 120 -284 120 -7 -1 3 -9 22 -20 42 -23 30 -25 -31 -6
-24 8 -89 26 -144 41 -105 29 -137 43 -72 31 22 -4 44 -3 50 3 7 5 29 6 55 1
39 -7 57 1 30 14 -7 3 -2 3 12 0 14 -3 45 -19 70 -34z m-835 20 c-22 -4 -53
-10 -70 -14 l-30 -6 30 14 c17 9 48 15 70 14 l40 -1 -40 -7z m1502 -59 c46
-22 73 -62 73 -111 0 -35 -27 -100 -41 -100 -10 0 -199 152 -199 160 0 13 46
48 75 58 41 14 44 14 92 -7z m-1892 -26 c-27 -13 -54 -24 -60 -24 -5 1 13 11
40 24 28 13 55 24 60 24 6 -1 -12 -11 -40 -24z m1120 -49 c69 -12 122 -33 112
-43 -3 -3 -27 2 -54 10 -26 8 -81 23 -120 32 -40 10 -73 19 -73 22 0 3 15 2
33 -1 17 -4 64 -13 102 -20z m206 8 c16 -8 38 -13 47 -10 9 3 28 -2 42 -10 25
-15 25 -15 1 -8 -15 4 -21 2 -17 -5 7 -11 -92 26 -108 41 -16 13 2 9 35 -8z
m537 -120 c32 -29 42 -43 30 -44 -9 0 -20 5 -23 11 -13 20 -86 68 -98 63 -7
-2 -25 7 -42 21 -26 21 -27 24 -10 25 15 0 16 3 7 12 -7 7 -12 16 -12 20 0 11
91 -55 148 -108z m-2082 56 c-43 -28 -80 -49 -83 -47 -5 6 138 97 152 97 6 0
-25 -23 -69 -50z m2015 -47 c13 -16 12 -17 -3 -4 -17 13 -22 21 -14 21 2 0 10
-8 17 -17z m-2011 3 c0 -8 -141 -109 -145 -104 -3 2 28 28 68 56 75 53 77 54
77 48z m1793 -22 c21 -14 36 -28 33 -32 -4 -3 4 -17 16 -31 13 -14 16 -21 8
-15 -135 98 -142 104 -118 104 13 0 41 -12 61 -26z m17 -117 c30 -23 98 -80
150 -127 90 -80 151 -125 135 -101 -3 6 -4 11 -2 11 12 0 155 -199 146 -202
-7 -2 9 -49 40 -118 28 -62 49 -115 47 -117 -2 -3 -7 5 -11 16 -3 12 -10 19
-14 16 -9 -5 -127 183 -119 190 2 2 12 -11 23 -30 25 -48 40 -44 16 4 -59 114
-326 402 -404 435 -40 16 -162 100 -174 119 -10 16 104 -49 167 -96z m-2080
-22 c-29 -30 -56 -52 -59 -49 -6 6 93 104 105 104 5 0 -16 -25 -46 -55z m1395
-101 c1 -27 11 -68 23 -91 27 -51 27 -55 5 -52 -21 3 -149 -10 -175 -17 -14
-4 -18 1 -18 19 0 13 -9 32 -20 42 -31 28 -25 66 18 107 32 32 45 37 92 41 30
1 59 3 64 2 5 -1 10 -23 11 -51z m1225 -98 c0 -16 -69 55 -101 104 -26 40 -22
37 36 -25 36 -38 65 -74 65 -79z m-68 -462 c42 -89 53 -123 63 -203 7 -53 16
-114 21 -136 6 -36 6 -38 -9 -24 -19 20 -37 85 -42 153 -6 101 -18 150 -53
210 -43 77 -55 106 -41 106 6 0 33 -48 61 -106z m-28 -99 c4 -19 3 -25 -3 -15
-4 8 -11 29 -15 45 -4 19 -3 25 3 15 4 -8 11 -28 15 -45z m26 -68 c0 -5 -4 -5
-10 -2 -5 3 -10 14 -10 23 0 15 2 15 10 2 5 -8 10 -19 10 -23z m57 -314 c-2
-16 -4 -3 -4 27 0 30 2 43 4 28 2 -16 2 -40 0 -55z m-1514 -1057 c47 -34 58
-66 51 -146 -6 -65 -10 -73 -45 -104 -35 -32 -42 -34 -97 -33 -53 2 -62 5 -86
33 -14 18 -26 37 -26 43 0 23 63 168 86 198 29 38 73 42 117 9z m1117 -341
c-13 -14 -30 -25 -39 -25 -9 0 0 11 19 25 45 31 49 31 20 0z m-2070 -251 c0
-25 -52 -74 -90 -84 -64 -17 -128 8 -156 61 -19 38 -18 73 6 119 34 66 42 66
146 -13 52 -39 94 -76 94 -83z m1980 142 c0 -3 -47 -36 -105 -71 -49 -30 -15
-1 45 39 55 36 60 39 60 32z m-175 -184 c-21 -18 -107 -64 -101 -53 4 6 28 22
54 36 50 26 62 30 47 17z"/>
<path d="M2880 3596 c0 -2 18 -15 40 -30 46 -30 55 -18 11 13 -26 19 -51 27
-51 17z"/>
</g>
</svg>
