<?xml version="1.0" standalone="no"?>
<!DOCTYPE svg PUBLIC "-//W3C//DTD SVG 20010904//EN"
 "http://www.w3.org/TR/2001/REC-SVG-20010904/DTD/svg10.dtd">
<svg version="1.0" xmlns="http://www.w3.org/2000/svg"
 width="435.000000pt" height="222.000000pt" viewBox="0 0 435.000000 222.000000"
 preserveAspectRatio="xMidYMid meet">

<g transform="translate(0.000000,222.000000) scale(0.100000,-0.100000)"
fill="#000000" stroke="none">
<path d="M1 2138 l1 -83 34 73 c22 47 42 76 56 82 18 7 10 9 -34 9 l-58 1 1
-82z"/>
<path d="M247 2209 c6 -6 29 -12 52 -14 52 -3 61 -11 29 -26 -14 -6 -34 -30
-44 -53 -13 -28 -24 -40 -37 -38 -27 5 -20 -17 13 -36 42 -24 43 -36 10 -74
-17 -18 -30 -36 -30 -40 0 -5 -6 -8 -12 -8 -12 0 -88 -79 -88 -91 0 -3 19 13
43 36 23 22 65 54 92 70 28 16 55 34 60 40 6 7 26 21 45 33 19 11 51 37 69 56
19 20 45 36 57 36 12 0 24 6 27 14 8 21 -2 26 -27 14 -44 -23 -52 -25 -71 -18
-19 7 -19 7 0 17 43 22 93 23 120 2 22 -18 23 -22 10 -35 -8 -9 -18 -33 -21
-55 -5 -28 -11 -39 -20 -35 -26 10 -25 -15 1 -59 30 -53 54 -57 85 -17 26 32
66 47 74 26 9 -23 42 -16 91 18 39 28 45 36 40 57 -5 19 -1 29 16 42 18 13 20
20 12 31 -9 10 -4 20 21 45 24 25 42 33 77 36 49 4 69 12 69 28 0 5 -152 9
-387 9 -275 0 -384 -3 -376 -11z m543 -78 c0 -24 -14 -41 -34 -41 -11 0 -28
-5 -36 -10 -11 -7 -7 -10 17 -10 42 0 51 -17 14 -25 -20 -4 -38 -1 -56 11 -32
21 -28 36 13 48 18 5 32 15 32 22 0 8 11 14 25 14 14 0 25 -4 25 -9z m-430
-35 c0 -37 -62 -47 -69 -11 -3 19 -3 19 17 2 20 -18 20 -18 27 2 7 24 25 28
25 7z"/>
<path d="M1050 2210 c0 -5 22 -10 49 -10 28 0 53 5 56 10 4 6 -15 10 -49 10
-31 0 -56 -4 -56 -10z"/>
<path d="M1280 2210 c-12 -8 -12 -10 4 -16 11 -4 24 0 34 10 15 15 15 16 -3
16 -11 0 -27 -4 -35 -10z"/>
<path d="M1393 2165 c-58 -52 -90 -72 -63 -40 10 12 10 15 -4 15 -9 0 -16 -4
-16 -10 0 -5 -8 -10 -17 -10 -13 0 -14 -3 -5 -8 9 -6 6 -14 -12 -31 -14 -13
-22 -29 -20 -35 3 -7 -4 -21 -16 -31 -11 -10 -20 -26 -20 -35 0 -9 -5 -21 -11
-27 -19 -19 0 -51 41 -67 22 -9 40 -20 40 -25 0 -10 58 -36 65 -29 3 2 -14 18
-36 34 -73 52 -82 63 -75 97 7 34 52 87 73 87 8 0 12 4 9 8 -6 10 45 59 85 85
14 8 52 23 84 33 32 9 72 22 89 30 29 12 27 13 -49 14 l-80 0 -62 -55z"/>
<path d="M1763 2213 c-20 -7 -15 -20 9 -26 19 -5 118 19 118 29 0 6 -113 3
-127 -3z"/>
<path d="M1965 2210 c7 -12 62 -12 90 0 14 6 4 9 -38 9 -36 1 -56 -3 -52 -9z"/>
<path d="M2455 2210 c6 -9 -14 -14 -40 -11 -5 1 -1 -6 9 -14 18 -13 18 -15 3
-15 -14 0 -16 -4 -7 -19 5 -11 10 -38 10 -60 0 -23 5 -41 10 -41 6 0 11 6 11
13 4 36 7 54 14 70 4 10 3 17 -4 17 -6 0 -11 5 -11 11 0 6 6 9 13 6 6 -2 17 3
23 12 9 12 8 18 -5 28 -19 15 -35 17 -26 3z"/>
<path d="M2707 2212 c-3 -4 -30 -7 -59 -6 -52 1 -108 -11 -108 -25 0 -4 5 -12
12 -19 9 -9 7 -13 -5 -18 -9 -3 -24 -4 -32 0 -10 3 -20 -5 -30 -24 -17 -33
-20 -70 -5 -70 15 0 87 40 100 55 7 8 27 17 46 21 19 3 37 10 40 15 3 5 17 9
32 9 l27 -1 -27 -24 c-33 -28 -35 -35 -9 -35 20 0 35 -36 19 -46 -18 -12 -77
-144 -63 -144 7 0 18 15 26 33 7 17 16 34 19 37 3 3 16 21 28 40 11 20 39 51
62 69 22 18 37 37 34 43 -4 6 1 8 15 3 13 -4 31 -1 44 7 27 17 117 24 117 8 0
-6 10 -8 25 -4 13 3 39 1 57 -5 44 -16 56 -1 31 41 -13 21 -26 32 -39 31 -10
-1 -57 -3 -104 -4 -90 -1 -125 -14 -114 -43 4 -10 1 -16 -9 -16 -16 0 -31 26
-22 39 7 13 -42 34 -61 27 -9 -3 -22 -2 -29 4 -7 6 -16 7 -18 2z m383 -52 c0
-5 -16 -9 -35 -8 -19 1 -32 4 -30 8 6 10 65 10 65 0z"/>
<path d="M3840 2211 c0 -6 5 -13 10 -16 20 -13 10 -27 -15 -21 -14 4 -25 2
-25 -3 0 -9 36 -23 92 -35 18 -4 42 -26 67 -59 47 -62 133 -135 170 -144 14
-3 28 -9 31 -12 3 -3 21 -15 40 -25 19 -11 38 -24 42 -30 5 -7 8 -7 8 2 0 9
11 10 39 6 21 -3 41 -2 44 4 4 5 -5 8 -21 6 -17 -2 -66 16 -132 48 -87 43
-117 64 -178 125 -40 41 -70 78 -66 84 4 6 10 7 17 0 7 -5 48 -17 92 -26 89
-18 225 -12 260 11 18 13 17 14 -14 14 -52 0 -165 21 -176 32 -7 7 2 9 28 5
28 -4 37 -2 37 9 0 8 -10 14 -26 14 -14 0 -34 5 -45 11 -17 9 -21 7 -26 -10
-5 -21 -27 -28 -37 -12 -5 8 -46 23 -46 17 0 -12 53 -56 67 -57 10 0 27 -4 38
-9 14 -6 7 -8 -27 -7 -27 1 -48 5 -48 9 0 4 -7 8 -15 8 -8 0 -32 16 -53 35
-30 26 -41 32 -51 22 -9 -9 -6 -15 11 -29 13 -10 17 -18 10 -18 -8 0 -26 14
-40 30 -25 29 -62 41 -62 21z"/>
<path d="M3115 2190 c-3 -5 -1 -10 4 -10 6 0 11 5 11 10 0 6 -2 10 -4 10 -3 0
-8 -4 -11 -10z"/>
<path d="M2375 2180 c-3 -5 1 -10 9 -10 9 0 16 5 16 10 0 6 -4 10 -9 10 -6 0
-13 -4 -16 -10z"/>
<path d="M3690 2170 c-18 -5 -39 -16 -46 -25 -11 -14 -47 -22 -113 -24 -20 -1
-8 -11 19 -16 12 -2 41 -13 64 -25 23 -11 48 -20 54 -20 19 0 14 18 -8 30 -43
23 -11 56 62 65 51 6 77 26 33 24 -17 -1 -46 -5 -65 -9z"/>
<path d="M1011 2124 c0 -11 3 -14 6 -6 3 7 2 16 -1 19 -3 4 -6 -2 -5 -13z"/>
<path d="M2238 2113 c-10 -2 -18 -10 -18 -18 0 -7 -7 -18 -15 -25 -22 -19 1
-43 36 -38 24 4 26 2 18 -13 -20 -39 1 -41 26 -2 17 25 17 27 -6 44 -19 15
-21 19 -7 19 9 0 20 -5 23 -10 4 -6 11 -8 16 -5 17 11 9 32 -16 43 -27 12 -29
13 -57 5z"/>
<path d="M3045 2110 c-3 -6 -17 -7 -30 -4 -12 3 -26 1 -30 -5 -3 -6 -11 -9
-16 -5 -14 8 -99 -5 -99 -15 0 -11 114 -41 176 -46 34 -2 58 1 70 10 11 8 29
11 42 8 12 -3 22 -1 22 5 0 14 -52 39 -78 37 -11 -1 -19 2 -17 6 3 4 -2 10
-11 13 -21 8 -22 8 -29 -4z"/>
<path d="M3286 2094 c-19 -19 -21 -48 -3 -61 11 -9 243 -58 317 -67 19 -2 35
-5 35 -6 0 -7 171 -3 173 5 5 17 -107 37 -205 37 -56 0 -93 4 -93 10 0 6 -7 7
-16 4 -18 -7 -85 8 -122 27 -13 6 -30 24 -38 39 -17 32 -26 34 -48 12z"/>
<path d="M3180 2089 c0 -5 5 -7 10 -4 6 3 10 8 10 11 0 2 -4 4 -10 4 -5 0 -10
-5 -10 -11z"/>
<path d="M1170 2080 c-11 -7 -3 -9 27 -7 23 1 45 6 49 10 11 11 -59 8 -76 -3z"/>
<path d="M3500 2045 c0 -8 7 -15 15 -15 8 0 15 4 15 9 0 5 -7 11 -15 15 -9 3
-15 0 -15 -9z"/>
<path d="M1401 2034 c-19 -8 -32 -16 -30 -19 8 -7 139 17 139 26 0 14 -72 10
-109 -7z"/>
<path d="M3198 2043 c7 -3 16 -2 19 1 4 3 -2 6 -13 5 -11 0 -14 -3 -6 -6z"/>
<path d="M1530 2010 c-36 -6 -85 -29 -78 -35 5 -5 117 20 124 28 10 10 -12 13
-46 7z"/>
<path d="M3160 1993 c0 -5 9 -16 20 -26 18 -15 24 -41 21 -87 0 -8 8 3 18 25
19 42 13 68 -19 79 -8 3 -21 9 -27 12 -7 3 -13 2 -13 -3z"/>
<path d="M935 1980 c3 -5 8 -10 11 -10 2 0 4 5 4 10 0 6 -5 10 -11 10 -5 0 -7
-4 -4 -10z"/>
<path d="M3320 1980 c0 -5 5 -10 10 -10 6 0 10 5 10 10 0 6 -4 10 -10 10 -5 0
-10 -4 -10 -10z"/>
<path d="M3060 1970 c0 -6 4 -9 9 -5 9 5 -6 -34 -30 -77 -5 -10 -9 -24 -9 -33
0 -8 -10 -20 -23 -27 -62 -36 -107 -76 -121 -109 -8 -19 -21 -41 -30 -48 -19
-16 -21 -61 -3 -61 7 0 59 -20 115 -45 56 -25 112 -44 125 -44 20 1 20 2 2 6
-22 4 -22 4 -147 59 -49 20 -88 39 -88 41 0 26 88 133 109 133 23 0 62 29 41
30 -8 0 -1 8 15 17 17 10 33 16 38 15 4 -1 7 7 7 18 0 11 5 20 10 20 6 0 10 6
10 14 0 8 14 25 32 37 28 21 29 23 12 30 -10 4 -13 8 -6 8 6 1 12 5 12 11 0 5
-10 9 -22 9 -13 -1 -31 2 -40 6 -11 4 -18 3 -18 -5z"/>
<path d="M1600 1949 c-14 -10 -30 -23 -35 -27 -6 -5 -24 -12 -40 -17 -24 -6
-26 -9 -11 -13 22 -5 59 13 95 46 31 28 24 37 -9 11z"/>
<path d="M2230 1955 c-7 -9 -8 -15 -2 -15 5 0 12 7 16 15 3 8 4 15 2 15 -2 0
-9 -7 -16 -15z"/>
<path d="M971 1933 c7 -12 15 -20 18 -17 3 2 -3 12 -13 22 -17 16 -18 16 -5
-5z"/>
<path d="M3803 1943 c-13 -2 -23 -11 -23 -19 0 -8 -6 -14 -13 -14 -7 0 -18 -5
-25 -12 -7 -7 -28 -13 -48 -14 -20 0 -39 -6 -43 -11 -12 -19 -58 -24 -65 -7
-3 8 -11 14 -18 13 -28 -3 -122 3 -110 8 17 7 5 23 -19 23 -11 0 -18 -4 -15
-9 6 -9 -40 -21 -85 -21 -15 0 -31 -4 -34 -10 -4 -6 13 -10 42 -11 26 0 57 -5
68 -10 16 -7 13 -8 -13 -5 -19 3 -31 2 -28 -1 3 -4 1 -12 -5 -19 -8 -9 -25
-11 -55 -7 -41 5 -44 4 -45 -18 0 -13 -3 -18 -6 -11 -6 16 -23 16 -23 -1 0
-20 49 -67 70 -67 10 0 26 -7 35 -16 12 -13 32 -15 90 -12 41 2 75 -1 75 -5 0
-5 21 -6 48 -3 26 3 55 6 65 6 9 1 17 5 17 11 0 5 9 9 21 9 11 0 18 4 15 9 -3
5 10 19 29 32 19 13 35 27 35 32 0 4 7 7 15 7 8 0 15 8 15 18 0 24 19 42 36
35 8 -3 14 -1 14 4 0 11 96 33 125 29 11 -2 36 -10 55 -19 25 -11 40 -12 53
-5 15 8 16 12 7 21 -10 9 -14 9 -17 0 -7 -20 -19 -15 -19 7 0 11 7 20 14 20
11 0 12 3 3 14 -21 25 -167 43 -238 29z m-323 -109 c-19 -22 -50 -37 -50 -24
0 5 7 10 15 10 9 0 18 7 21 15 4 8 11 15 16 15 6 0 5 -7 -2 -16z m-179 -61
c-12 -20 -14 -14 -5 12 4 9 9 14 11 11 3 -2 0 -13 -6 -23z"/>
<path d="M3558 1893 c7 -3 16 -2 19 1 4 3 -2 6 -13 5 -11 0 -14 -3 -6 -6z"/>
<path d="M835 1852 c-16 -2 -35 -9 -40 -15 -6 -7 -20 -18 -33 -25 -18 -10 -22
-10 -22 1 0 8 -10 18 -23 24 -18 9 -25 6 -40 -13 -10 -13 -15 -29 -12 -34 4
-6 -1 -24 -9 -42 -19 -36 -15 -44 12 -29 12 6 29 11 40 11 10 0 25 11 32 25
11 21 18 24 54 19 62 -9 170 45 151 75 -5 10 -37 11 -110 3z m-24 -35 c-6 -8
-8 -17 -4 -20 3 -4 -2 -7 -12 -7 -17 0 -17 1 0 20 20 22 34 28 16 7z"/>
<path d="M2650 1811 c0 -6 4 -13 10 -16 6 -3 7 1 4 9 -7 18 -14 21 -14 7z"/>
<path d="M1118 1794 c-35 -19 -36 -48 -1 -80 31 -29 28 -34 -26 -41 -37 -5
-58 -24 -46 -43 7 -11 112 -44 140 -45 32 -1 28 -30 -10 -68 -19 -19 -35 -40
-35 -46 0 -14 37 -15 45 -1 3 5 18 7 34 4 20 -4 30 -1 34 10 4 9 13 16 22 16
8 0 15 5 15 10 0 6 19 29 43 50 38 36 40 40 19 40 -12 0 -46 -8 -75 -19 l-53
-18 0 45 c1 39 -3 48 -24 59 -14 7 -19 13 -12 13 6 0 12 9 12 19 0 10 6 21 14
24 15 6 27 53 19 74 -7 18 -81 16 -115 -3z m122 -304 c0 -5 -7 -10 -15 -10 -8
0 -15 5 -15 10 0 6 7 10 15 10 8 0 15 -4 15 -10z"/>
<path d="M2020 1765 c-20 -24 -6 -28 15 -5 10 11 13 20 8 20 -6 0 -16 -7 -23
-15z"/>
<path d="M4095 1775 c-28 -9 -124 -34 -149 -40 -23 -5 -27 -3 -23 9 4 10 1 16
-9 16 -9 0 -14 -6 -11 -13 10 -26 -10 -38 -66 -42 -31 -2 -63 -9 -70 -17 -8
-7 -40 -21 -73 -32 -94 -30 -92 -28 -64 -36 21 -7 12 -15 -12 -11 -4 0 -35 -8
-70 -19 -35 -10 -97 -20 -139 -22 -46 -3 -82 -10 -93 -19 -44 -37 -49 -43 -37
-47 7 -2 20 3 30 12 15 14 51 23 51 13 0 -18 -44 -87 -55 -87 -22 0 -13 -38
13 -56 25 -17 19 -44 -9 -44 -17 0 -18 -3 -7 -20 7 -11 18 -20 23 -20 6 0 26
-13 45 -30 19 -16 43 -29 54 -30 12 0 16 -5 12 -16 -3 -8 -2 -13 3 -10 4 3 23
-10 41 -29 19 -19 40 -35 48 -35 7 0 20 -7 28 -15 9 -8 27 -15 40 -15 15 0 23
-4 19 -10 -4 -6 -11 -7 -17 -4 -6 4 -9 1 -6 -7 3 -8 20 -22 39 -32 19 -10 43
-33 54 -50 14 -22 28 -32 46 -32 14 0 33 -8 43 -18 27 -26 129 -21 135 8 3 16
1 17 -12 6 -14 -11 -16 -10 -14 7 1 16 7 19 32 17 42 -4 65 -15 65 -31 0 -8 5
-14 10 -14 6 0 10 -5 10 -11 0 -6 -8 -8 -19 -4 -20 6 -38 -20 -20 -30 5 -4 7
-11 4 -16 -4 -5 10 -9 29 -9 23 0 36 -5 36 -13 0 -22 214 -287 232 -287 10 0
-59 90 -80 103 -6 4 -18 20 -26 35 -8 15 -29 43 -45 62 -17 19 -34 44 -37 55
-4 11 -9 22 -13 25 -14 12 -40 68 -39 86 1 10 -1 33 -5 49 -7 28 -6 28 12 -7
10 -20 17 -48 16 -62 -7 -57 35 -29 58 39 7 22 13 68 12 103 -1 60 -4 66 -38
97 -42 39 -49 55 -12 31 13 -9 30 -16 37 -16 6 0 21 -9 32 -19 12 -11 30 -21
41 -23 17 -3 20 2 17 34 l-3 36 83 -4 c90 -4 76 4 -47 26 -38 7 -82 19 -96 26
-22 11 -34 11 -72 -1 -30 -9 -56 -11 -76 -5 -19 5 -33 4 -41 -3 -10 -9 -11 -7
-5 13 7 23 7 23 -9 7 -18 -18 -41 -24 -32 -8 3 5 -8 11 -25 13 -16 3 -32 1
-35 -4 -3 -5 -11 -7 -17 -5 -7 2 -21 0 -32 -6 -11 -6 -41 -9 -67 -8 -26 1 -57
-3 -68 -9 -13 -7 -20 -7 -20 0 0 5 8 10 18 10 14 0 15 2 2 10 -9 6 -19 5 -29
-3 -12 -10 -13 -8 -8 12 7 28 -9 65 -25 55 -5 -4 -14 -1 -18 5 -4 7 -13 13
-21 15 -8 1 -23 8 -34 15 -13 8 -15 11 -3 7 9 -2 19 1 22 9 3 9 -4 15 -22 17
-24 3 -22 4 16 14 35 10 42 10 42 -3 0 -8 -4 -11 -10 -8 -5 3 -10 1 -10 -4 0
-14 17 -14 25 -1 4 6 11 8 16 5 13 -8 11 9 -2 22 -7 7 -3 12 15 15 14 3 26 1
26 -5 0 -5 6 -5 13 2 8 6 17 7 21 3 4 -4 6 -1 4 7 -1 7 3 16 11 19 8 3 11 0 7
-7 -5 -8 0 -8 18 1 14 6 26 15 26 20 0 5 5 6 10 3 6 -4 8 -10 6 -14 -7 -11 27
-10 42 2 6 5 12 7 12 3 0 -3 9 3 21 15 11 11 23 18 26 15 3 -3 -2 -13 -11 -22
-18 -17 -16 -24 6 -28 7 -2 21 -6 31 -11 9 -4 25 -4 35 0 16 7 16 8 -2 14 -14
5 -16 10 -8 15 7 4 22 -4 37 -20 23 -25 29 -26 127 -28 87 -1 105 -4 119 -20
10 -13 30 -19 62 -20 33 -1 46 -5 42 -14 -3 -9 4 -11 25 -7 23 4 28 2 24 -10
-4 -8 -1 -15 5 -15 8 0 11 54 11 178 l0 177 -42 22 c-70 36 -97 44 -118 33
-14 -7 -19 -5 -23 10 -5 19 -39 26 -72 15z m62 -62 c-3 -3 -11 -2 -17 2 -9 6
-9 10 1 16 14 8 27 -7 16 -18z m-42 -153 c-4 -6 -1 -17 5 -25 10 -12 9 -15 -3
-15 -9 0 -18 8 -20 18 -4 14 -6 13 -13 -7 l-7 -25 -9 23 c-11 30 -3 41 28 41
15 0 23 -4 19 -10z m65 4 c0 -3 -6 -12 -14 -20 -13 -12 -15 -12 -13 6 1 17 27
31 27 14z m-779 -40 c-11 -15 -18 -31 -14 -37 3 -6 1 -7 -6 -3 -21 13 5 65 32
66 5 0 -1 -12 -12 -26z m564 16 c3 -5 1 -10 -4 -10 -6 0 -11 5 -11 10 0 6 2
10 4 10 3 0 8 -4 11 -10z m-581 -219 c4 -5 -3 -7 -14 -4 -23 6 -26 13 -6 13 8
0 17 -4 20 -9z m127 -124 c-1 -12 -15 -9 -19 4 -3 6 1 10 8 8 6 -3 11 -8 11
-12z m519 4 c0 -5 -7 -12 -16 -15 -10 -4 -14 -14 -11 -26 3 -11 1 -20 -4 -20
-12 0 -11 27 1 51 11 19 30 26 30 10z m-240 -42 c0 -12 -7 -19 -18 -19 -10 0
-22 -4 -27 -9 -6 -6 -10 0 -11 18 -1 24 3 28 28 29 21 0 28 -4 28 -19z"/>
<path d="M80 1760 c-9 -6 -10 -10 -3 -10 6 0 15 5 18 10 8 12 4 12 -15 0z"/>
<path d="M1416 1761 c14 -13 134 -25 134 -13 0 13 -36 22 -94 22 -30 0 -46 -4
-40 -9z"/>
<path d="M3172 1743 c-28 -61 -38 -73 -74 -89 -21 -9 -44 -24 -50 -32 -11 -12
-7 -14 28 -10 44 5 74 19 94 43 12 14 11 18 -1 26 -8 5 -9 9 -3 9 12 0 34 43
34 65 0 24 -15 17 -28 -12z"/>
<path d="M875 1749 c-50 -12 -66 -27 -23 -22 57 7 78 13 78 23 0 11 -1 11 -55
-1z"/>
<path d="M31 1714 c-30 -38 -26 -55 4 -19 23 28 31 45 21 45 -3 0 -14 -12 -25
-26z"/>
<path d="M3853 1733 c9 -2 23 -2 30 0 6 3 -1 5 -18 5 -16 0 -22 -2 -12 -5z"/>
<path d="M183 1713 c-13 -2 -23 -8 -23 -13 0 -4 -16 -17 -35 -29 -44 -25 -46
-45 -5 -39 17 3 33 1 36 -3 5 -9 103 29 124 48 13 13 13 16 -4 29 -19 14 -47
16 -93 7z"/>
<path d="M1943 1669 c-29 -38 -31 -46 -29 -110 2 -65 -1 -74 -26 -70 -5 0 -8
-6 -8 -15 0 -8 -4 -12 -10 -9 -5 3 -10 15 -10 26 0 10 -4 19 -10 19 -5 0 -10
-11 -10 -25 0 -17 -8 -29 -22 -35 -34 -14 -54 -33 -62 -56 -3 -11 -18 -27 -31
-34 -14 -7 -25 -19 -25 -26 0 -6 -20 -27 -45 -45 -24 -19 -46 -40 -49 -46 -9
-21 25 -15 59 11 18 14 45 28 61 32 16 3 51 17 78 30 28 13 55 24 62 24 6 0
17 7 24 15 7 8 24 15 39 15 14 1 35 6 47 13 l21 12 -23 25 c-13 13 -24 19 -24
12 0 -15 -36 -16 -45 -1 -4 6 0 16 8 22 11 9 16 37 19 98 3 67 9 94 27 122 30
49 23 47 -16 -4z m-88 -249 c-3 -5 -12 -10 -18 -10 -7 0 -6 4 3 10 19 12 23
12 15 0z"/>
<path d="M575 1646 c-30 -34 -35 -48 -10 -24 16 15 27 29 24 32 -2 2 -8 -1
-14 -8z"/>
<path d="M3130 1610 c-17 -10 -3 -30 19 -30 16 0 51 28 40 31 -16 6 -50 5 -59
-1z"/>
<path d="M621 1594 c-19 -9 -54 -31 -78 -51 -36 -30 -43 -33 -43 -16 0 10 7
29 16 41 8 12 13 22 10 22 -13 0 -56 -78 -51 -93 4 -8 0 -26 -8 -39 -33 -51
-47 -127 -37 -196 6 -35 17 -79 24 -96 18 -43 102 -127 151 -151 38 -18 39
-19 15 -25 -14 -3 -37 -13 -52 -23 -23 -16 -25 -21 -15 -38 6 -10 19 -19 27
-19 35 0 94 23 117 46 29 29 43 30 77 3 30 -24 46 -20 21 4 -14 14 -13 16 7
22 69 20 138 75 138 110 0 14 -72 -4 -92 -22 -16 -14 -36 -18 -92 -18 -64 1
-77 5 -131 37 -56 34 -94 76 -111 122 -7 17 -4 19 32 13 21 -4 55 -7 74 -7
l36 0 0 -56 c1 -52 12 -73 37 -74 13 0 27 50 27 100 l0 49 88 27 c112 33 116
35 63 29 l-43 -6 25 33 c15 18 33 41 42 51 20 23 19 67 -2 83 -10 7 -42 14
-71 14 -29 0 -68 6 -87 14 -35 15 -51 11 -35 -9 8 -9 2 -16 -20 -25 -20 -8
-30 -19 -30 -34 1 -25 24 -59 34 -49 4 4 6 -7 4 -24 -1 -18 -6 -29 -10 -27 -4
3 -8 -2 -8 -10 0 -25 -38 -28 -123 -11 -20 4 -39 11 -42 15 -2 4 1 30 9 58 15
61 73 129 129 155 45 20 146 23 198 6 37 -13 119 -85 119 -106 0 -6 9 -18 21
-27 16 -11 20 -23 19 -53 -5 -67 -1 -100 9 -83 6 8 7 18 5 22 -8 12 23 21 38
12 7 -5 19 -9 27 -11 8 -1 18 -8 22 -15 6 -9 11 -10 19 -2 16 16 -6 30 -60 41
-42 9 -45 11 -43 39 1 16 -3 47 -9 69 -10 38 -12 39 -19 15 -6 -22 -7 -23 -8
-4 -1 12 -7 27 -15 34 -8 6 -13 17 -10 25 3 7 -7 22 -23 34 -15 11 -32 24 -38
29 -5 4 -28 16 -50 25 -38 16 -38 17 -10 15 17 -1 41 -12 55 -23 14 -12 42
-32 63 -44 20 -13 37 -29 37 -36 0 -8 5 -17 10 -20 6 -3 10 -1 10 5 0 15 -88
103 -119 120 -38 20 -228 23 -270 4z m162 -1 c-7 -2 -21 -2 -30 0 -10 3 -4 5
12 5 17 0 24 -2 18 -5z m33 -218 c-29 -27 -36 -46 -8 -24 10 8 5 2 -10 -13
-16 -16 -36 -28 -46 -28 -15 0 -15 2 -2 10 10 6 11 10 3 10 -8 0 -13 13 -13
29 0 32 10 38 69 40 l34 1 -27 -25z"/>
<path d="M1055 1570 c4 -6 11 -8 16 -5 14 9 11 15 -7 15 -8 0 -12 -5 -9 -10z"/>
<path d="M1100 1570 c0 -5 5 -10 10 -10 6 0 10 5 10 10 0 6 -4 10 -10 10 -5 0
-10 -4 -10 -10z"/>
<path d="M3180 1570 c0 -5 7 -10 16 -10 8 0 12 5 9 10 -3 6 -10 10 -16 10 -5
0 -9 -4 -9 -10z"/>
<path d="M1005 1540 c8 -12 95 -13 95 -1 0 4 -23 9 -50 10 -31 0 -49 -3 -45
-9z"/>
<path d="M3198 1532 c-20 -4 -25 -22 -5 -21 6 0 21 4 31 8 15 6 16 9 5 12 -8
3 -22 4 -31 1z"/>
<path d="M3130 1520 c0 -5 4 -10 9 -10 6 0 13 5 16 10 3 6 -1 10 -9 10 -9 0
-16 -4 -16 -10z"/>
<path d="M2060 1470 c6 -11 13 -20 16 -20 2 0 0 9 -6 20 -6 11 -13 20 -16 20
-2 0 0 -9 6 -20z"/>
<path d="M3177 1473 c-4 -3 -7 -11 -7 -17 0 -6 5 -5 12 2 6 6 9 14 7 17 -3 3
-9 2 -12 -2z"/>
<path d="M3070 1449 c0 -12 6 -16 20 -12 12 3 20 0 20 -7 0 -21 25 -4 26 17 1
17 -5 21 -32 20 -25 -1 -34 -6 -34 -18z"/>
<path d="M2095 1442 c-3 -3 9 -21 27 -39 17 -18 27 -33 20 -33 -7 0 -12 -9
-12 -20 0 -11 -7 -23 -15 -26 -8 -4 -15 -12 -15 -20 0 -7 -21 -42 -47 -78
-103 -139 -123 -171 -123 -194 0 -19 4 -23 20 -19 15 4 20 0 20 -14 0 -23 19
-25 46 -4 21 16 60 20 66 6 2 -4 13 -11 24 -15 17 -5 23 -2 28 19 11 43 24 28
15 -17 -13 -67 -12 -71 16 -64 25 6 29 1 26 -35 -1 -9 5 -22 14 -29 12 -10 15
-10 15 0 0 22 13 2 15 -23 1 -12 9 -23 19 -25 15 -3 16 -1 7 16 -10 19 -8 20
15 16 14 -3 34 -2 45 1 24 8 66 65 47 65 -7 0 -18 -10 -23 -22 -12 -28 -38
-30 -43 -4 -2 11 -14 27 -26 37 -11 9 -19 20 -16 23 3 3 21 -9 39 -26 26 -25
35 -28 42 -17 12 19 11 25 -6 39 -15 12 -13 42 5 85 13 32 29 109 24 114 -3 3
-7 -5 -11 -17 -3 -12 -12 -22 -19 -22 -8 0 -13 -4 -11 -9 2 -8 -3 -11 -18 -11
-3 0 1 10 10 23 8 13 12 27 8 30 -3 4 -2 7 4 7 16 0 33 54 26 82 -4 13 -12 32
-20 43 -13 19 -14 18 -8 -10 l6 -30 -19 34 c-13 23 -21 30 -27 22 -4 -7 -14
-10 -22 -7 -9 4 -22 -2 -30 -11 -13 -17 -13 -16 -4 3 5 11 6 26 1 34 -6 10
-15 6 -40 -18 -17 -18 -35 -32 -40 -32 -5 0 -23 -12 -42 -27 -18 -15 -27 -20
-20 -13 6 8 12 20 12 28 0 8 14 32 31 54 41 51 41 89 0 127 -17 16 -33 26 -36
23z m139 -297 c-9 -14 -18 -25 -21 -25 -5 0 5 18 20 38 17 22 18 13 1 -13z
m-48 -87 c-11 -15 -16 -18 -16 -7 0 16 21 42 28 34 2 -2 -3 -14 -12 -27z"/>
<path d="M3270 1425 c0 -8 4 -15 10 -15 5 0 7 7 4 15 -4 8 -8 15 -10 15 -2 0
-4 -7 -4 -15z"/>
<path d="M223 1423 c15 -2 39 -2 55 0 15 2 2 4 -28 4 -30 0 -43 -2 -27 -4z"/>
<path d="M3174 1417 c-3 -9 -3 -21 1 -27 3 -5 2 -10 -3 -10 -6 0 -12 -7 -16
-15 -11 -29 19 -15 33 16 10 22 10 34 3 41 -8 8 -13 7 -18 -5z"/>
<path d="M107 1406 c-21 -8 -53 -17 -72 -20 -19 -4 -35 -11 -35 -16 0 -6 2
-10 5 -10 14 0 131 43 140 51 12 12 8 11 -38 -5z"/>
<path d="M3122 1398 c2 -6 10 -14 16 -16 7 -2 10 2 6 12 -7 18 -28 22 -22 4z"/>
<path d="M3140 1321 c0 -5 -10 -12 -22 -16 -18 -5 -11 -9 37 -19 74 -16 215
-85 215 -106 0 -11 2 -12 8 -2 7 10 15 8 38 -9 43 -33 53 -45 20 -25 -24 15
-30 16 -38 5 -8 -11 -9 -10 -4 3 3 12 1 15 -10 11 -23 -8 -16 -22 14 -29 52
-11 59 -16 32 -24 -21 -7 -22 -8 -5 -9 17 -1 17 -3 5 -11 -19 -12 -4 -27 30
-32 19 -2 25 -9 25 -27 0 -30 34 -54 55 -40 11 8 12 12 3 16 -7 2 -13 9 -13
14 0 6 5 7 10 4 14 -8 13 8 -1 22 -9 9 -5 14 14 18 23 6 24 9 12 21 -7 8 -18
14 -23 14 -5 0 -17 9 -27 20 -10 11 -24 20 -32 20 -7 0 -13 4 -13 8 0 9 -68
50 -173 106 -38 20 -80 45 -94 56 -26 20 -63 27 -63 11z m340 -221 c0 -5 -4
-10 -10 -10 -5 0 -10 5 -10 10 0 6 5 10 10 10 6 0 10 -4 10 -10z"/>
<path d="M2937 1300 c-5 -14 -29 -126 -43 -200 -4 -19 -20 -59 -35 -89 -16
-30 -29 -64 -29 -77 0 -13 -4 -24 -8 -24 -4 0 -8 10 -7 23 0 30 -17 35 -31 8
-17 -33 -66 -82 -92 -92 -29 -11 -39 -37 -19 -52 14 -11 11 -18 -26 -57 -41
-44 -43 -45 -80 -37 -27 7 -42 6 -50 -2 -8 -8 -4 -11 16 -12 15 -1 32 -3 37
-4 6 -1 15 -3 20 -4 6 0 10 -5 10 -10 0 -6 -15 -7 -34 -4 -19 3 -36 1 -40 -5
-4 -6 14 -41 39 -77 25 -37 45 -61 45 -55 0 17 -27 65 -45 80 -9 7 -21 22 -26
32 -8 14 -6 17 8 15 10 -1 24 -6 31 -10 13 -9 82 24 120 58 13 11 30 36 39 55
9 19 27 49 40 67 13 18 27 42 33 55 8 22 9 21 9 -7 1 -39 -32 -135 -50 -146
-16 -9 -20 -61 -7 -70 10 -7 -59 -76 -93 -95 -21 -11 -21 -11 5 -32 20 -15 36
-19 61 -15 23 4 35 2 35 -6 0 -18 81 -12 129 9 24 11 52 20 63 20 11 0 29 5
40 11 27 15 114 15 132 0 7 -6 16 -8 19 -4 4 3 7 1 7 -7 0 -9 -9 -11 -30 -6
-18 3 -30 1 -30 -5 0 -21 21 -49 36 -49 9 0 30 -10 47 -22 21 -15 46 -23 75
-23 36 0 48 -5 73 -32 16 -18 32 -33 35 -33 3 0 26 -13 51 -30 27 -19 57 -30
78 -30 19 0 37 -4 40 -10 3 -5 13 -10 21 -10 12 0 14 7 9 30 -11 52 1 69 45
67 22 -2 40 1 40 5 0 20 23 5 33 -22 6 -17 15 -30 19 -30 11 0 10 18 -2 40
-11 21 1 34 41 43 33 8 89 59 71 65 -7 2 -38 -6 -69 -19 -31 -12 -73 -25 -92
-29 -20 -3 -34 -9 -33 -14 2 -5 -2 -13 -10 -17 -16 -11 -29 -11 -26 -1 3 8
-19 94 -34 135 -8 20 -8 31 1 40 8 8 11 6 11 -8 0 -17 2 -18 10 -5 12 19 13
43 1 36 -5 -3 -11 16 -14 41 -4 38 -1 51 14 64 10 9 16 18 14 21 -10 9 71 27
100 22 16 -3 30 -6 30 -7 1 -1 11 -19 23 -39 12 -21 18 -38 13 -38 -4 0 -12
-10 -18 -22 -6 -15 -31 -29 -74 -44 -35 -12 -55 -23 -43 -23 34 -2 115 30 122
48 3 9 14 22 23 29 17 12 17 14 -6 48 l-24 35 25 24 c25 25 28 36 18 71 -4 16
-11 20 -30 16 -19 -3 -23 -1 -18 12 4 11 1 16 -10 16 -9 0 -16 -8 -16 -20 0
-14 -7 -20 -23 -20 -12 0 -28 -9 -35 -20 -7 -12 -28 -22 -52 -26 -22 -4 -40
-11 -40 -16 0 -5 3 -7 8 -4 4 2 16 -2 27 -10 10 -8 14 -14 9 -14 -6 0 -15 5
-21 11 -7 7 -13 7 -17 1 -3 -6 -2 -13 4 -17 13 -8 13 -25 -1 -25 -5 0 -8 4 -5
9 3 4 -4 17 -16 27 -21 19 -21 19 -13 -1 12 -30 23 -129 15 -138 -3 -4 -12 29
-19 73 l-12 80 31 31 c24 25 28 34 19 45 -9 11 -15 10 -30 -10 -11 -14 -18
-31 -17 -38 2 -7 -8 -14 -22 -16 -14 -2 -22 -1 -18 4 8 8 -9 34 -22 34 -4 0
-10 -19 -12 -42 -5 -44 13 -103 32 -110 6 -2 14 -23 17 -46 6 -46 6 -46 -52
-22 -11 5 -33 11 -48 15 -17 3 -31 15 -37 31 -14 36 -65 54 -133 47 -51 -5
-57 -4 -57 13 0 11 -4 15 -8 9 -4 -5 -16 -17 -27 -25 -19 -14 -20 -14 -2 6 21
26 22 38 1 55 -13 11 -15 26 -11 76 5 62 -5 77 -17 27 -13 -52 -49 -121 -69
-133 -19 -12 -19 -11 2 15 21 27 21 29 5 41 -9 7 -28 10 -41 7 -12 -4 -23 -2
-23 3 0 4 -9 14 -19 20 -16 10 -22 9 -33 -4 -11 -14 -10 -15 10 -9 32 11 27
-1 -9 -19 l-31 -17 7 32 c5 21 4 30 -3 26 -6 -4 -8 2 -4 16 3 14 2 19 -6 14
-7 -4 -12 -4 -12 1 -1 4 -2 34 -5 66 -3 48 1 66 26 115 21 41 29 71 29 110 0
29 7 75 16 102 9 27 14 55 11 62 -4 10 -6 9 -10 -2z m753 -515 c0 -5 -5 -3
-10 5 -5 8 -10 20 -10 25 0 6 5 3 10 -5 5 -8 10 -19 10 -25z m-580 -65 c0 -5
-2 -10 -4 -10 -3 0 -8 5 -11 10 -3 6 -1 10 4 10 6 0 11 -4 11 -10z m114 -196
c3 -8 2 -12 -4 -9 -6 3 -10 10 -10 16 0 14 7 11 14 -7z"/>
<path d="M1010 1200 c0 -13 20 -13 40 0 12 8 9 10 -12 10 -16 0 -28 -4 -28
-10z"/>
<path d="M1770 1079 c-22 -12 -38 -15 -44 -9 -15 15 -26 12 -26 -5 0 -9 15
-22 33 -30 30 -13 33 -12 49 8 13 17 33 62 25 56 -1 -1 -18 -10 -37 -20z"/>
<path d="M3080 1092 c0 -6 5 -14 11 -17 6 -4 14 -17 19 -29 6 -14 9 -16 9 -5
1 9 -8 26 -19 39 -11 13 -20 18 -20 12z"/>
<path d="M95 1029 c-11 -4 -37 -8 -57 -8 -34 -1 -38 -4 -38 -26 0 -22 4 -25
35 -25 48 0 48 -27 0 -36 -42 -7 -45 -21 -9 -34 21 -8 30 -7 43 8 10 12 24 16
39 13 22 -6 31 -20 15 -22 -11 -1 -32 -42 -27 -51 2 -4 14 -5 27 -2 96 21 104
9 40 -59 -47 -51 -47 -52 -23 -55 14 -2 36 -15 49 -29 l25 -26 -23 6 c-13 3
-34 1 -48 -6 -19 -8 -26 -8 -32 2 -7 10 -17 8 -47 -8 -22 -11 -33 -20 -26 -21
21 0 3 -20 -19 -20 -29 0 -23 -17 11 -32 39 -17 42 -55 5 -55 -31 -1 -39 -7
-32 -28 4 -10 19 -15 44 -15 24 0 45 -7 60 -22 23 -21 23 -21 37 -2 13 17 12
19 -12 25 -26 5 -25 6 14 17 23 7 45 19 48 27 3 8 12 15 20 15 26 0 85 34 86
49 0 8 -8 20 -17 27 -20 15 -22 13 35 18 32 3 42 15 35 49 -3 18 -10 37 -15
43 -5 8 -3 18 7 27 8 9 15 27 15 41 0 13 4 36 10 51 8 21 6 31 -11 54 -19 26
-19 30 -6 69 8 24 10 42 5 42 -17 0 -78 -70 -78 -90 0 -10 -4 -22 -10 -25 -5
-3 -10 3 -10 15 0 12 -4 19 -9 16 -5 -4 -11 -2 -13 4 -2 6 -21 11 -43 12 -22
1 -50 8 -62 15 -20 14 -21 17 -8 37 17 25 7 30 -30 15z"/>
<path d="M3431 1005 c-19 -26 -20 -34 -2 -105 6 -24 9 -28 10 -13 1 21 4 20
37 -15 l35 -37 -6 43 c-7 45 0 53 21 25 11 -17 14 -15 25 12 10 24 13 26 16
12 4 -17 26 -20 23 -4 0 5 9 17 22 27 l23 19 -33 1 c-18 0 -50 -9 -71 -20
l-39 -19 5 20 c5 19 4 20 -15 10 -19 -10 -22 -8 -28 14 -4 15 -1 32 6 40 8 9
8 15 2 15 -6 0 -20 -11 -31 -25z"/>
<path d="M3123 975 c0 -27 2 -38 4 -22 2 15 2 37 0 50 -2 12 -4 0 -4 -28z"/>
<path d="M3630 1013 c0 -6 5 -15 11 -18 6 -4 13 -15 17 -26 4 -10 12 -15 18
-11 7 5 1 17 -17 37 -16 17 -29 25 -29 18z"/>
<path d="M1670 993 c-36 -6 -112 -34 -130 -48 -8 -6 -34 -18 -58 -25 -26 -8
-51 -25 -63 -42 l-21 -29 44 7 c23 4 54 13 68 20 26 14 108 47 193 78 49 18
58 30 31 40 -16 6 -22 6 -64 -1z"/>
<path d="M0 950 c0 -5 9 -10 21 -10 11 0 17 5 14 10 -3 6 -13 10 -21 10 -8 0
-14 -4 -14 -10z"/>
<path d="M3716 929 c18 -35 33 -38 27 -5 -3 13 -13 26 -24 29 -17 5 -18 3 -3
-24z"/>
<path d="M2427 929 c-6 -22 25 -124 35 -114 3 4 3 -9 -2 -29 -5 -25 -4 -35 4
-33 6 1 10 -4 8 -12 -2 -9 4 -12 18 -8 11 3 20 1 20 -4 0 -5 5 -9 10 -9 16 0
11 19 -10 37 -14 12 -16 19 -8 25 9 5 3 21 -21 55 -23 32 -34 59 -34 81 1 36
-12 43 -20 11z"/>
<path d="M3899 931 c-29 -24 -23 -33 16 -23 19 6 25 11 17 16 -7 4 -10 12 -7
17 10 14 -1 11 -26 -10z"/>
<path d="M3780 918 c0 -4 14 -8 30 -8 17 0 30 2 30 4 0 2 -13 6 -30 8 -16 3
-30 1 -30 -4z"/>
<path d="M3622 882 c-7 -22 -12 -45 -12 -51 0 -18 25 -8 26 10 0 8 4 22 8 31
4 9 4 24 -1 33 -8 13 -12 8 -21 -23z"/>
<path d="M4287 908 c-68 -14 -99 -36 -95 -66 2 -17 12 -31 29 -39 22 -11 34
-9 77 9 49 21 52 24 52 59 0 43 -10 49 -63 37z"/>
<path d="M3574 875 c-10 -8 -14 -15 -8 -15 6 0 17 7 24 15 16 19 9 19 -16 0z"/>
<path d="M1367 869 c-19 -11 -14 -29 8 -29 8 0 13 9 12 20 -1 11 -1 20 -2 20
0 0 -8 -5 -18 -11z"/>
<path d="M1658 853 c7 -3 16 -2 19 1 4 3 -2 6 -13 5 -11 0 -14 -3 -6 -6z"/>
<path d="M1510 760 c-55 -51 -90 -68 -110 -55 -6 4 -41 16 -78 27 -72 21 -198
35 -172 18 17 -11 18 -11 -39 -16 -25 -2 -47 -8 -50 -13 -8 -12 -112 -7 -139
8 -18 9 -22 9 -22 -2 0 -17 82 -42 105 -33 11 4 15 2 12 -6 -3 -8 -21 -12 -51
-11 -44 1 -46 0 -33 -15 8 -9 17 -30 21 -46 9 -38 39 -63 108 -91 l57 -23 113
39 c91 33 129 40 194 42 l81 2 -18 24 c-14 18 -16 27 -8 37 6 7 8 17 5 23 -3
5 13 33 36 63 22 29 45 59 51 66 22 29 -12 8 -63 -38z m-285 -59 c-3 -6 -11
-8 -17 -5 -6 4 -5 9 3 15 16 10 23 4 14 -10z m-48 3 c-3 -3 -12 -4 -19 -1 -8
3 -5 6 6 6 11 1 17 -2 13 -5z m248 -84 c3 -5 1 -10 -4 -10 -6 0 -11 5 -11 10
0 6 2 10 4 10 3 0 8 -4 11 -10z m-210 -49 c3 -5 1 -12 -5 -16 -5 -3 -10 1 -10
9 0 18 6 21 15 7z"/>
<path d="M844 764 c20 -20 40 -33 44 -29 7 7 -56 64 -72 65 -5 0 8 -16 28 -36z"/>
<path d="M2525 789 c-4 -6 -4 -13 -1 -16 3 -4 6 0 6 8 0 11 2 11 10 -1 8 -13
11 -13 27 3 16 16 16 17 -9 17 -15 0 -30 -5 -33 -11z"/>
<path d="M2580 744 c0 -8 -4 -12 -10 -9 -6 3 -7 -1 -4 -9 7 -18 14 -19 39 -10
13 5 14 8 3 15 -10 7 -10 9 0 9 6 0 12 5 12 10 0 6 -9 10 -20 10 -11 0 -20 -7
-20 -16z"/>
<path d="M2481 704 c0 -11 3 -14 6 -6 3 7 2 16 -1 19 -3 4 -6 -2 -5 -13z"/>
<path d="M3695 710 c-3 -5 -30 -17 -60 -26 -30 -10 -55 -21 -55 -25 0 -5 17
-2 38 5 59 22 92 39 92 48 0 11 -7 10 -15 -2z"/>
<path d="M864 685 c-4 -9 -4 -18 -2 -21 9 -8 39 8 35 19 -6 18 -27 20 -33 2z"/>
<path d="M1845 651 c11 -5 45 -11 75 -14 42 -5 46 -4 20 2 -58 14 -118 22 -95
12z"/>
<path d="M3670 656 c0 -2 7 -7 16 -10 8 -3 12 -2 9 4 -6 10 -25 14 -25 6z"/>
<path d="M2090 640 c0 -5 7 -7 15 -4 8 4 15 8 15 10 0 2 -7 4 -15 4 -8 0 -15
-4 -15 -10z"/>
<path d="M4310 559 c0 -5 9 -9 20 -9 11 0 20 2 20 4 0 2 -9 6 -20 9 -11 3 -20
1 -20 -4z"/>
<path d="M1614 516 c-3 -8 -1 -23 5 -33 10 -17 10 -17 11 0 0 22 11 22 44 -4
14 -11 26 -16 26 -10 0 10 -61 61 -74 61 -4 0 -9 -6 -12 -14z"/>
<path d="M1530 506 c0 -8 -16 -16 -40 -20 -21 -3 -45 -13 -52 -22 -7 -9 -25
-30 -40 -46 -16 -16 -28 -36 -28 -45 0 -11 -3 -13 -13 -5 -7 6 -18 7 -25 3 -9
-6 -7 -13 8 -31 l20 -23 45 46 c25 26 45 52 45 58 0 8 -4 8 -15 -1 -23 -19
-19 6 5 30 11 11 29 20 40 20 17 0 19 -3 10 -19 -5 -11 -14 -21 -19 -23 -4 -1
-12 -13 -15 -25 -9 -29 7 -30 41 -3 36 28 80 26 109 -6 13 -14 24 -29 24 -35
0 -5 6 -9 13 -9 8 0 22 -16 33 -35 10 -19 22 -35 26 -35 5 0 8 -7 8 -15 0 -8
9 -20 19 -27 10 -6 17 -17 14 -25 -3 -7 3 -16 12 -19 13 -5 14 -9 4 -15 -10
-6 -10 -11 -1 -22 14 -17 2 -60 -20 -74 -19 -12 -37 -58 -29 -72 11 -17 133
-11 139 8 3 9 -1 11 -16 7 -26 -8 -37 18 -16 39 17 16 25 19 23 8 -4 -23 4
-32 29 -35 16 -2 27 -9 27 -18 0 -11 14 -16 52 -18 49 -3 51 -2 45 20 -3 12
-16 38 -29 56 -13 19 -23 39 -23 43 0 5 -17 20 -39 33 -22 15 -61 58 -95 108
-31 46 -69 101 -84 122 -15 22 -47 50 -72 63 -25 13 -56 35 -70 48 -29 28 -50
32 -50 11z"/>
<path d="M3940 505 c-14 -8 -33 -14 -43 -15 -21 0 -26 -11 -31 -70 -3 -40 -7
-45 -30 -48 -21 -3 -25 0 -19 13 5 14 2 16 -18 10 -13 -4 -36 -13 -50 -21 -25
-12 -25 -15 -15 -58 6 -25 16 -46 23 -46 7 0 13 -4 13 -10 0 -6 -11 -5 -26 2
-24 11 -29 10 -54 -20 -22 -27 -33 -32 -67 -30 -62 2 -140 -51 -127 -86 5 -14
16 -17 55 -13 27 2 49 1 49 -3 0 -3 20 -5 45 -4 34 2 45 -1 45 -12 0 -7 6 -14
13 -14 6 0 19 -5 27 -10 13 -9 13 -11 1 -19 -12 -8 -12 -12 3 -26 9 -9 23 -14
31 -11 8 3 16 2 19 -2 3 -5 40 -8 83 -8 51 -1 60 1 26 3 -40 3 -53 8 -53 20 0
10 -6 14 -20 10 -11 -3 -20 -1 -20 3 0 5 14 11 31 15 35 8 80 49 104 95 13 25
14 38 6 62 -9 26 -9 29 4 18 8 -7 15 -23 15 -35 0 -22 4 -23 65 -22 50 2 65 5
65 17 0 13 1 13 10 0 6 -9 10 -10 10 -3 0 6 14 18 30 27 17 8 28 10 25 5 -4
-5 1 -21 9 -36 8 -16 17 -36 20 -45 3 -10 12 -18 20 -18 13 0 32 48 52 130 2
8 8 33 13 55 6 22 8 48 5 58 -4 12 3 28 18 44 l23 26 -25 -14 c-14 -7 -32 -12
-41 -11 -9 2 -27 -2 -42 -7 -18 -7 -27 -7 -29 1 -3 7 -12 9 -22 5 -9 -4 -14
-12 -11 -18 4 -6 -2 -20 -13 -32 -25 -28 -31 -47 -21 -73 5 -15 2 -26 -12 -37
-18 -16 -19 -15 -19 33 0 30 4 50 11 50 14 0 3 138 -13 158 -7 8 -24 12 -40
10 -19 -3 -28 0 -28 9 0 17 -48 16 -80 -2z m140 -61 c16 -41 12 -45 -22 -24
-18 11 -49 20 -67 20 -44 0 -30 17 19 23 19 2 41 5 48 5 7 1 17 -10 22 -24z
m-6 -98 c-3 -7 -17 -19 -32 -25 -27 -12 -27 -12 3 13 35 30 36 30 29 12z
m-179 -66 l20 -25 -22 19 c-13 11 -23 24 -23 29 0 6 1 8 3 6 1 -2 11 -15 22
-29z m-99 -46 c1 -9 0 -13 -4 -10 -3 4 -7 14 -8 22 -1 9 0 13 4 10 3 -4 7 -14
8 -22z m61 -29 c-7 -7 -14 -11 -16 -9 -2 2 -10 -1 -18 -7 -10 -9 -13 -7 -13 9
0 22 15 31 42 24 13 -3 14 -7 5 -17z m58 -15 c8 -13 -5 -13 -25 0 -13 8 -13
10 2 10 9 0 20 -4 23 -10z"/>
<path d="M1736 482 c-2 -4 12 -8 32 -8 20 0 46 -3 57 -8 12 -4 10 -1 -5 8 -27
16 -76 21 -84 8z"/>
<path d="M2611 474 c0 -11 3 -14 6 -6 3 7 2 16 -1 19 -3 4 -6 -2 -5 -13z"/>
<path d="M157 473 c-13 -12 -7 -25 8 -19 18 7 16 -23 -5 -66 -10 -21 -10 -31
-1 -41 11 -14 3 -20 -61 -41 -10 -3 -18 -12 -18 -20 0 -20 36 -39 60 -31 15 5
20 2 20 -12 0 -10 7 -26 14 -35 14 -19 36 -24 36 -10 0 5 11 14 25 20 29 13
78 16 58 4 -8 -5 -9 -12 -2 -22 8 -13 11 -13 22 0 19 23 94 61 130 65 17 2 41
6 52 8 19 4 75 12 160 22 22 3 63 9 90 14 28 6 61 10 75 9 41 -1 160 13 185
22 13 5 25 6 28 3 3 -3 16 2 29 11 28 20 36 20 -208 -4 -109 -11 -228 -22
-263 -26 -54 -5 -63 -4 -58 9 7 19 -23 33 -34 15 -4 -6 -5 -16 -2 -21 3 -5 0
-7 -8 -5 -8 3 -13 10 -12 16 4 17 -35 34 -59 26 -14 -4 -18 -3 -14 5 12 19
-17 37 -62 39 -24 1 -47 4 -52 7 -4 3 -10 -2 -14 -10 -3 -8 -13 -15 -21 -15
-12 0 -15 6 -10 22 6 17 4 20 -9 15 -19 -7 -21 4 -4 21 9 9 5 12 -18 12 -16 0
-35 5 -40 10 -6 6 -13 7 -17 3z"/>
<path d="M4336 455 c-3 -8 -1 -15 4 -15 6 0 10 7 10 15 0 8 -2 15 -4 15 -2 0
-6 -7 -10 -15z"/>
<path d="M2038 413 c7 -3 16 -2 19 1 4 3 -2 6 -13 5 -11 0 -14 -3 -6 -6z"/>
<path d="M2393 395 c-3 -9 -3 -18 -1 -21 3 -3 8 4 11 16 6 23 -1 27 -10 5z"/>
<path d="M3015 390 c-3 -5 -1 -10 4 -10 6 0 11 5 11 10 0 6 -2 10 -4 10 -3 0
-8 -4 -11 -10z"/>
<path d="M3053 385 c0 -8 4 -15 9 -15 4 0 8 4 8 9 0 6 -4 12 -8 15 -5 3 -9 -1
-9 -9z"/>
<path d="M2582 363 c-6 -16 -14 -41 -17 -58 l-6 -30 14 30 c15 33 30 85 23 85
-2 0 -8 -12 -14 -27z"/>
<path d="M3106 365 c-11 -8 -16 -18 -12 -22 4 -4 11 -1 16 6 4 8 15 11 25 7
11 -4 15 -2 13 6 -6 18 -21 19 -42 3z"/>
<path d="M99 368 c0 -2 -2 -14 -5 -28 -4 -24 -3 -24 11 -6 17 23 19 36 5 36
-5 0 -10 -1 -11 -2z"/>
<path d="M1997 350 c-38 -10 -72 -21 -75 -25 -10 -11 86 4 137 21 24 8 51 12
61 9 10 -3 21 -1 25 5 10 16 -71 11 -148 -10z"/>
<path d="M2344 309 c-23 -23 -56 -45 -75 -49 l-34 -8 36 -1 c37 -1 46 6 95 67
35 43 27 40 -22 -9z"/>
<path d="M2339 233 c-13 -16 -12 -17 4 -4 16 13 21 21 13 21 -2 0 -10 -8 -17
-17z"/>
<path d="M455 230 c-3 -5 1 -10 9 -10 9 0 16 5 16 10 0 6 -4 10 -9 10 -6 0
-13 -4 -16 -10z"/>
<path d="M3400 209 c0 -14 21 -21 46 -15 36 9 29 24 -11 23 -19 -1 -35 -4 -35
-8z"/>
<path d="M455 200 c3 -5 8 -10 11 -10 2 0 4 5 4 10 0 6 -5 10 -11 10 -5 0 -7
-4 -4 -10z"/>
<path d="M2294 185 c-23 -36 -14 -38 14 -4 13 16 19 29 13 29 -6 0 -18 -11
-27 -25z"/>
<path d="M486 191 c-10 -16 5 -40 25 -38 23 2 23 -1 0 26 -11 12 -22 18 -25
12z"/>
<path d="M3400 170 c0 -13 20 -13 40 0 12 8 9 10 -12 10 -16 0 -28 -4 -28 -10z"/>
<path d="M455 133 c-3 -15 -9 -22 -13 -17 -4 6 -18 7 -32 3 -16 -4 -19 -7 -7
-8 9 -1 17 -5 17 -11 0 -5 9 -10 19 -10 11 0 23 -4 26 -10 3 -5 16 -10 28 -9
12 0 37 -2 55 -5 34 -6 40 1 20 23 -11 11 -10 12 1 6 9 -5 7 2 -5 18 -21 29
-77 38 -88 15 -4 -7 -4 -3 -2 10 6 31 -10 28 -19 -5z"/>
<path d="M1132 120 c-7 -12 -10 -26 -6 -32 4 -6 3 -8 -4 -4 -6 3 -13 -3 -17
-13 -3 -11 -14 -23 -23 -26 -9 -3 -27 -13 -39 -23 -22 -16 -20 -17 72 -18 91
-1 100 1 96 29 0 4 4 7 9 7 6 0 10 -6 10 -14 0 -8 5 -18 11 -21 14 -9 59 3 59
16 0 6 -7 9 -15 5 -8 -3 -15 -1 -15 4 0 6 -5 10 -12 10 -6 0 -26 11 -45 26
-28 21 -31 28 -23 45 8 15 7 19 -4 19 -8 0 -20 2 -28 5 -7 3 -19 -4 -26 -15z"/>
<path d="M3175 121 c-56 -7 -75 -16 -75 -35 0 -19 44 -46 73 -46 16 0 26 -7
30 -20 9 -36 55 -24 160 43 53 34 61 51 20 43 -16 -3 -55 -6 -88 -7 -51 -2
-60 0 -57 14 2 9 -1 16 -5 16 -4 -1 -30 -5 -58 -8z"/>
<path d="M2482 90 c0 -14 2 -19 5 -12 2 6 2 18 0 25 -3 6 -5 1 -5 -13z"/>
<path d="M3050 60 c0 -5 7 -10 15 -10 8 0 15 5 15 10 0 6 -7 10 -15 10 -8 0
-15 -4 -15 -10z"/>
<path d="M3698 63 c7 -3 16 -2 19 1 4 3 -2 6 -13 5 -11 0 -14 -3 -6 -6z"/>
<path d="M2490 45 c0 -11 5 -27 10 -35 8 -12 10 -12 10 5 0 11 -5 27 -10 35
-8 12 -10 12 -10 -5z"/>
<path d="M625 20 c-3 -5 -18 -11 -33 -11 -25 -2 -25 -2 -3 -6 31 -6 73 5 66
17 -8 13 -22 13 -30 0z"/>
<path d="M3530 20 c0 -5 15 -10 33 -9 27 0 29 2 12 9 -28 12 -45 12 -45 0z"/>
<path d="M3505 10 c3 -5 8 -10 11 -10 2 0 4 5 4 10 0 6 -5 10 -11 10 -5 0 -7
-4 -4 -10z"/>
</g>
</svg>
